{
  "accessors": [
    {
      "bufferView": 2,
      "componentType": 5126,
      "count": 851,
      "max": [
        1.8821099996566772,
        1.0,
        2.3762099742889404
      ],
      "min": [
        -1.0,
        -1.0,
        -0.032680001109838486
      ],
      "type": "VEC3"
    },
    {
      "bufferView": 2,
      "byteOffset": 10212,
      "componentType": 5126,
      "count": 851,
      "max": [
        1.0,
        1.0,
        0.9999997019767761
      ],
      "min": [
        -1.0,
        -1.0,
        -1.0
      ],
      "type": "VEC3"
    },
    {
      "bufferView": 1,
      "componentType": 5126,
      "count": 851,
      "max": [
        0.9803100228309631,
        0.9788600206375122
      ],
      "min": [
        0.019689999520778656,
        0.021139999851584435
      ],
      "type": "VEC2"
    },
    {
      "bufferView": 0,
      "componentType": 5125,
      "count": 3552,
      "type": "SCALAR"
    }
  ],
  "asset": {
    "extras": {
      "author": "flogo (https://sketchfab.com/flogo)",
      "license": "CC-BY-4.0 (http://creativecommons.org/licenses/by/4.0/)",
      "source": "https://sketchfab.com/3d-models/cherry-bomb-dbcfd63c7a5442b598f18edd3b38e3d7",
      "title": "Cherry Bomb"
    },
    "generator": "Sketchfab-12.68.0",
    "version": "2.0"
  },
  "bufferViews": [
    {
      "buffer": 0,
      "byteLength": 14208,
      "name": "floatBufferViews",
      "target": 34963
    },
    {
      "buffer": 0,
      "byteLength": 6808,
      "byteOffset": 14208,
      "byteStride": 8,
      "name": "floatBufferViews",
      "target": 34962
    },
    {
      "buffer": 0,
      "byteLength": 20424,
      "byteOffset": 21016,
      "byteStride": 12,
      "name": "floatBufferViews",
      "target": 34962
    }
  ],
  "buffers": [
    {
      "byteLength": 41440,
      "uri": "scene.bin"
    }
  ],
  "images": [
    {
      "uri": "textures/Material_baseColor.png"
    }
  ],
  "materials": [
    {
      "doubleSided": true,
      "name": "Material",
      "pbrMetallicRoughness": {
        "baseColorTexture": {
          "index": 0
        },
        "metallicFactor": 0.0,
        "roughnessFactor": 0.6
      }
    }
  ],
  "meshes": [
    {
      "name": "CherryBomb_0",
      "primitives": [
        {
          "attributes": {
            "NORMAL": 1,
            "POSITION": 0,
            "TEXCOORD_0": 2
          },
          "indices": 3,
          "material": 0,
          "mode": 4
        }
      ]
    }
  ],
  "nodes": [
    {
      "children": [
        1
      ],
      "matrix": [
        1.0,
        0.0,
        0.0,
        0.0,
        0.0,
        2.220446049250313e-16,
        -1.0,
        0.0,
        0.0,
        1.0,
        2.220446049250313e-16,
        0.0,
        0.0,
        0.0,
        0.0,
        1.0
      ],
      "name": "Sketchfab_model"
    },
    {
      "children": [
        2,
        4,
        6
      ],
      "name": "Root"
    },
    {
      "children": [
        3
      ],
      "matrix": [
        -0.29086000000000006,
        0.9551700000000001,
        -0.05519000000000001,
        0.0,
        -0.7711,
        -0.19988000000000003,
        0.6045200000000001,
        0.0,
        0.5663900000000001,
        0.21839000000000003,
        0.7946700000000001,
        0.0,
        4.076250000000001,
        1.00545,
        5.903860000000001,
        1.0
      ],
      "name": "Lamp"
    },
    {
      "name": "Lamp"
    },
    {
      "children": [
        5
      ],
      "name": "CherryBomb"
    },
    {
      "mesh": 0,
      "name": "CherryBomb_0"
    },
    {
      "children": [
        7
      ],
      "matrix": [
        -0.78661,
        0.25442000000000004,
        -0.5626000000000001,
        0.0,
        0.6173400000000001,
        0.34129000000000004,
        -0.70881,
        0.0,
        0.011670000000000003,
        -0.9048700000000001,
        -0.42553,
        0.0,
        0.0,
        -5.53284,
        0.0,
        1.0
      ],
      "name": "Hemi"
    },
    {
      "name": "Hemi"
    }
  ],
  "samplers": [
    {
      "magFilter": 9729,
      "minFilter": 9987,
      "wrapS": 10497,
      "wrapT": 10497
    }
  ],
  "scene": 0,
  "scenes": [
    {
      "name": "Sketchfab_Scene",
      "nodes": [
        0
      ]
    }
  ],
  "textures": [
    {
      "sampler": 0,
      "source": 0
    }
  ]
}
