{
  "accessors": [
    {
      "bufferView": 2,
      "componentType": 5126,
      "count": 13157,
      "max": [
        0.1357399970293045,
        0.10984999686479568,
        1.2257499694824219
      ],
      "min": [
        -0.14404000341892242,
        -0.10993999987840652,
        -0.27425000071525574
      ],
      "type": "VEC3"
    },
    {
      "bufferView": 2,
      "byteOffset": 157884,
      "componentType": 5126,
      "count": 13157,
      "max": [
        1.0,
        1.0,
        1.0
      ],
      "min": [
        -1.0,
        -1.0,
        -1.0
      ],
      "type": "VEC3"
    },
    {
      "bufferView": 1,
      "componentType": 5126,
      "count": 13157,
      "max": [
        0.9877300262451172,
        0.9823700189590454
      ],
      "min": [
        0.010649999603629112,
        0.00395999988541007
      ],
      "type": "VEC2"
    },
    {
      "bufferView": 0,
      "componentType": 5125,
      "count": 64440,
      "type": "SCALAR"
    }
  ],
  "asset": {
    "extras": {
      "author": "Miaru3d (https://sketchfab.com/miaru3d)",
      "license": "CC-BY-4.0 (http://creativecommons.org/licenses/by/4.0/)",
      "source": "https://sketchfab.com/3d-models/rose-quartzs-sword-e1f120e1f19b4d118e19db9398f83e88",
      "title": "Rose Quartz's Sword"
    },
    "generator": "Sketchfab-12.67.0",
    "version": "2.0"
  },
  "bufferViews": [
    {
      "buffer": 0,
      "byteLength": 257760,
      "name": "floatBufferViews",
      "target": 34963
    },
    {
      "buffer": 0,
      "byteLength": 105256,
      "byteOffset": 257760,
      "byteStride": 8,
      "name": "floatBufferViews",
      "target": 34962
    },
    {
      "buffer": 0,
      "byteLength": 315768,
      "byteOffset": 363016,
      "byteStride": 12,
      "name": "floatBufferViews",
      "target": 34962
    }
  ],
  "buffers": [
    {
      "byteLength": 678784,
      "uri": "scene.bin"
    }
  ],
  "images": [
    {
      "uri": "textures/RoseSword_Main_baseColor.png"
    },
    {
      "uri": "textures/RoseSword_Main_emissive.png"
    }
  ],
  "materials": [
    {
      "doubleSided": true,
      "emissiveFactor": [
        1.0,
        1.0,
        1.0
      ],
      "emissiveTexture": {
        "index": 1
      },
      "name": "RoseSword_Main",
      "pbrMetallicRoughness": {
        "baseColorTexture": {
          "index": 0
        },
        "metallicFactor": 0.0,
        "roughnessFactor": 0.6
      }
    }
  ],
  "meshes": [
    {
      "name": "RoseSword_0",
      "primitives": [
        {
          "attributes": {
            "NORMAL": 1,
            "POSITION": 0,
            "TEXCOORD_0": 2
          },
          "indices": 3,
          "material": 0,
          "mode": 4
        }
      ]
    }
  ],
  "nodes": [
    {
      "children": [
        1
      ],
      "matrix": [
        1.0,
        0.0,
        0.0,
        0.0,
        0.0,
        2.220446049250313e-16,
        -1.0,
        0.0,
        0.0,
        1.0,
        2.220446049250313e-16,
        0.0,
        0.0,
        0.0,
        0.0,
        1.0
      ],
      "name": "Sketchfab_model"
    },
    {
      "children": [
        2
      ],
      "name": "Root"
    },
    {
      "children": [
        3
      ],
      "matrix": [
        -0.9982,
        0.004490000000000001,
        0.05986000000000001,
        0.0,
        0.060030000000000014,
        0.07459000000000002,
        0.9954099999999999,
        0.0,
        0.0,
        0.9972,
        -0.07473000000000002,
        0.0,
        0.0,
        -0.13169,
        0.11090000000000001,
        1.0
      ],
      "name": "RoseSword"
    },
    {
      "mesh": 0,
      "name": "RoseSword_0"
    }
  ],
  "samplers": [
    {
      "magFilter": 9729,
      "minFilter": 9987,
      "wrapS": 10497,
      "wrapT": 10497
    }
  ],
  "scene": 0,
  "scenes": [
    {
      "name": "Sketchfab_Scene",
      "nodes": [
        0
      ]
    }
  ],
  "textures": [
    {
      "sampler": 0,
      "source": 0
    },
    {
      "sampler": 0,
      "source": 1
    }
  ]
}
